<svg width="10" height="12" viewBox="0 0 10 12" fill="none" xmlns="http://www.w3.org/2000/svg">
<path fill-rule="evenodd" clip-rule="evenodd" d="M1.84935 3.27767H0.7818L0.72764 3.60263C0.556619 4.62876 0.798698 5.34823 1.25302 5.80682C1.57015 6.12694 1.96059 6.28888 2.30396 6.35367L2.63556 10.6666H1.88884V11.4443H8.11106V10.6666H7.36436L7.69558 6.36265C7.99452 6.31766 8.25327 6.21565 8.47191 6.06473C8.77259 5.85719 8.9721 5.57469 9.10001 5.27952C9.35039 4.70173 9.34487 4.03616 9.27261 3.60263L9.21845 3.27767H2.62854C2.60362 2.89644 2.61958 2.44503 2.72136 2.06604C2.78786 1.81843 2.88303 1.63202 2.99873 1.5121C3.10415 1.40284 3.24009 1.33323 3.44439 1.33323V0.55545C3.02648 0.55545 2.68926 0.712689 2.43901 0.972061C2.19904 1.22078 2.05602 1.54478 1.9702 1.8643C1.84583 2.32738 1.82493 2.84438 1.84935 3.27767ZM6.91349 6.38878H3.08673L3.41563 10.6666H6.58428L6.91349 6.38878ZM2.66685 5.61101H7.33346C7.6548 5.61101 7.87491 5.53174 8.03008 5.42464C8.18715 5.31622 8.30361 5.16121 8.38636 4.97027C8.50877 4.68777 8.54634 4.35056 8.53673 4.05545H1.45616C1.41351 4.68998 1.59928 5.05121 1.80556 5.25943C2.062 5.51829 2.41909 5.61096 2.66685 5.61101C2.66683 5.61101 2.66686 5.61101 2.66685 5.61101Z" fill="black"/>
</svg>
